<?xml version="1.0" standalone="no"?>
<!DOCTYPE svg PUBLIC "-//W3C//DTD SVG 20010904//EN"
 "http://www.w3.org/TR/2001/REC-SVG-20010904/DTD/svg10.dtd">
<svg version="1.0" xmlns="http://www.w3.org/2000/svg"
 width="28.000000pt" height="29.000000pt" viewBox="0 0 28.000000 29.000000"
 preserveAspectRatio="xMidYMid meet">

<g transform="translate(0.000000,29.000000) scale(0.100000,-0.100000)"
fill="#000000" stroke="none">
<path d="M70 258 c-67 -46 -87 -126 -50 -198 26 -51 45 -60 123 -60 77 0 109
23 127 90 19 72 -11 144 -73 173 -48 23 -88 21 -127 -5z m147 -39 c24 -23 31
-51 12 -47 -6 2 -14 -4 -16 -12 -4 -12 -3 -13 5 -1 8 11 12 10 21 -7 15 -28
14 -54 -4 -78 -14 -19 -14 -19 -15 3 0 12 -5 25 -11 29 -7 4 -9 0 -5 -12 5
-18 -8 -54 -16 -44 -2 3 -12 17 -21 33 -10 15 -23 27 -31 27 -18 0 -49 37 -41
50 3 5 12 7 18 3 7 -4 18 -8 26 -10 8 -1 18 -8 23 -15 8 -10 11 -10 15 0 2 6
9 10 14 6 12 -7 11 3 -3 45 -7 20 -20 41 -28 48 -13 10 -11 12 9 8 13 -2 35
-14 48 -26z m-117 17 c0 -2 -7 -7 -16 -10 -8 -3 -12 -2 -9 4 6 10 25 14 25 6z
m-63 -109 c1 -29 1 -30 -8 -9 -5 13 -7 28 -3 33 8 14 9 12 11 -24z m28 -77
c10 -11 16 -20 13 -20 -3 0 -13 9 -23 20 -10 11 -16 20 -13 20 3 0 13 -9 23
-20z m73 -5 c-3 -3 -9 2 -12 12 -6 14 -5 15 5 6 7 -7 10 -15 7 -18z m82 1 c0
-2 -8 -10 -17 -17 -16 -13 -17 -12 -4 4 13 16 21 21 21 13z"/>
<path d="M220 130 c-9 -6 -10 -10 -3 -10 6 0 15 5 18 10 8 12 4 12 -15 0z"/>
</g>
</svg>
